<svg xmlns="http://www.w3.org/2000/svg" fill-rule="evenodd" stroke-linejoin="round" stroke-miterlimit="2" clip-rule="evenodd" viewBox="0 0 64 64" id="Medium"><g transform="translate(-21.333 -21.333) scale(1.06667)" fill="#ffffff" class="color000000 svgShape"><path fill="none" d="M20 20h60v60H20z"></path><ellipse cy="43.5" rx="25.714" ry="25.179" transform="matrix(.54688 0 0 .55851 37.813 25.705)" fill="#ffffff" class="color000000 svgShape"></ellipse><path d="M61.25 36.875c-1.719 0-3.342.98-4.63 2.735-1.723 2.346-2.87 6.123-2.87 10.39s1.147 8.044 2.87 10.39c1.288 1.754 2.911 2.735 4.63 2.735 1.719 0 3.342-.98 4.63-2.736 1.723-2.345 2.87-6.122 2.87-10.389 0-4.267-1.147-8.044-2.87-10.39-1.288-1.755-2.911-2.735-4.63-2.735ZM73.438 38.75c-.29 0-.584.092-.863.317-.298.24-.625.726-.883 1.461-.623 1.776-1.067 5.351-1.067 9.471s.444 7.695 1.067 9.47c.258.736.585 1.222.883 1.462.279.225.573.318.863.318.29 0 .584-.093.863-.318.298-.24.625-.726.883-1.461.623-1.776 1.067-5.351 1.067-9.47 0-4.12-.444-7.696-1.067-9.472-.258-.735-.585-1.22-.883-1.461a1.347 1.347 0 0 0-.863-.318Z" fill="#ffffff" class="color000000 svgShape"></path></g></svg>